<mxfile host="app.diagrams.net" modified="2023-08-11T15:00:54.284Z" agent="Mozilla/5.0 (Windows NT 10.0; Win64; x64) AppleWebKit/537.36 (KHTML, like Gecko) Chrome/115.0.0.0 Safari/537.36" etag="fV4QNfkTmOwbDm1mad8v" version="21.6.8" type="github">
  <diagram name="ページ1" id="CWkv1fQP9HciS20XrLr_">
    <mxGraphModel dx="1914" dy="991" grid="0" gridSize="10" guides="1" tooltips="1" connect="1" arrows="1" fold="1" page="1" pageScale="1" pageWidth="827" pageHeight="1169" math="0" shadow="0">
      <root>
        <mxCell id="0" />
        <mxCell id="1" parent="0" />
        <mxCell id="4QEiF2TuoCkcyrNfOcC0-1" value="" style="image;html=1;image=img/lib/clip_art/networking/Router_Icon_128x128.png" parent="1" vertex="1">
          <mxGeometry x="249" y="121" width="80" height="80" as="geometry" />
        </mxCell>
        <mxCell id="4QEiF2TuoCkcyrNfOcC0-2" value="" style="image;html=1;image=img/lib/clip_art/networking/Router_Icon_128x128.png" parent="1" vertex="1">
          <mxGeometry x="558" y="121" width="80" height="80" as="geometry" />
        </mxCell>
      </root>
    </mxGraphModel>
  </diagram>
</mxfile>
